# xmcd
#
# Track frame offsets:
#	150
#	19683
#	34661
#	54946
#	73988
#	93928
#	112203
#	135829
#	156499
#	175473
#	198062
#	218589
#	238639
#	252687
#	284041
#
# Disc length: 4271 seconds
#
# Revision: 0
# Processed by: cddbd v1.5.2PL0 Copyright (c) Steve Scherf et al.
# Submitted via: audiograbber 1.83.01
#
DISCID=dc10ad0f
DTITLE=Blue Rose - Blue Rose Nuggets 50
DYEAR=2011
DGENRE=Country Rock
TTITLE0=Cody Canada and The Departed - Years In The Making
TTITLE1=Steve Wynn and The Miracle 3 - We Don't Talk About It
TTITLE2=Big In Iowa - Mr. Becky
TTITLE3=Jabe - Honest As Pure Gold
TTITLE4=Wrinkle Neck Mules - Fortune Fades
TTITLE5=Susan Cowsill - Spring Day In Ohio
TTITLE6=Leroy Stagger and The Wildflowers - Everyone's On Drugs
TTITLE7=Stepple Jack - Blackened Blues
TTITLE8=Blue Mountain - Mountain Girl
TTITLE9=Austin Collins - Roses Are Black
TTITLE10=Elliott Murphy - Poise 'n Grace
TTITLE11=Parsons Thibaud - Stone I Can't Roll
TTITLE12=The Bottle Rockets - Mendocino
TTITLE13=Julian Dawson - Four Walls
TTITLE14=Baskery - Data Track
EXTD=
EXTT0=
EXTT1=
EXTT2=
EXTT3=
EXTT4=
EXTT5=
EXTT6=
EXTT7=
EXTT8=
EXTT9=
EXTT10=
EXTT11=
EXTT12=
EXTT13=
EXTT14=
PLAYORDER=
